<svg xmlns="http://www.w3.org/2000/svg" width="640" height="180" viewBox="0 0 640 180" role="img" aria-label="O Grego - logotipo">

  <!-- © O Grego -->

  <defs>
    <style>
      .blue { fill:#1E3A8A }
      .stroke {
        stroke:#1E3A8A;
        stroke-width:7;
        stroke-linecap:round;
        stroke-linejoin:round;
      }
      .text {
        fill:#1E3A8A;
        font-family:"Cinzel","Trajan Pro","Georgia",serif;
        font-weight:700;
        letter-spacing:0.8px;
      }
      .sub {
        fill:#1E3A8A;
        font-family:system-ui,-apple-system,Segoe UI,Roboto,Arial,sans-serif;
        font-weight:600;
        letter-spacing:3.2px;
      }
    </style>
  </defs>

  <!-- SÍMBOLO (GRANDE, SEM CORTE) -->
  <g transform="translate(32,22)">
    <!-- Moldura -->
    <rect x="0" y="0" width="120" height="120" rx="20" fill="none" class="stroke"></rect>

    <!-- ÓMEGA -->
    <path d="M84 90
             c12-10 18-22 18-38
             c0-22-18-40-42-40
             S18 30 18 52
             c0 16 6 30 18 38
             h20
             v-16
             h-12
             c-8-6-10-12-10-22
             c0-14 10-26 26-26
             s26 12 26 26
             c0 10-2 16-10 22
             h-12
             v16
             z" class="blue"></path>
  </g>

  <!-- TEXTO (MAIOR PARA EQUILÍBRIO) -->
  <text x="190" y="96" font-size="72" class="text">O Grego</text>

  <text x="192" y="138" font-size="18" class="sub">RESTAURANTE</text>

</svg>
